REM DIRINDEX 1\2,1\3,1\4
REM DIRNAME folder01,folder02,folder03,folder04
TITLE ""
FILE "DISC3Track20.mp3" MP3
  TRACK 01 AUDIO
    TITLE "0:"
    INDEX 01 00:00:00
  TRACK 02 AUDIO
    TITLE "4:cjc105_5231"
    INDEX 01 00:00:11
  TRACK 03 AUDIO
    TITLE "0:"
    INDEX 01 00:03:17
  TRACK 04 AUDIO
    TITLE "2:cjc105_5232"
    INDEX 01 00:03:66
  TRACK 05 AUDIO
    TITLE "3:cjc105_5233"
    INDEX 01 00:05:50
  TRACK 06 AUDIO
    TITLE "0:"
    INDEX 01 00:07:03
  TRACK 07 AUDIO
    TITLE "2:cjc105_5234"
    INDEX 01 00:07:25
  TRACK 08 AUDIO
    TITLE "3:cjc105_5235"
    INDEX 01 00:09:32
  TRACK 09 AUDIO
    TITLE "0:"
    INDEX 01 00:11:03
  TRACK 10 AUDIO
    TITLE "2:cjc105_5236"
    INDEX 01 00:11:23
  TRACK 11 AUDIO
    TITLE "3:cjc105_5237"
    INDEX 01 00:12:42
  TRACK 12 AUDIO
    TITLE "0:"
    INDEX 01 00:13:65
  TRACK 13 AUDIO
    TITLE "2:cjc105_5238"
    INDEX 01 00:14:19
  TRACK 14 AUDIO
    TITLE "3:cjc105_5239"
    INDEX 01 00:15:44
  TRACK 15 AUDIO
    TITLE "0:"
    INDEX 01 00:17:02
  TRACK 16 AUDIO
    TITLE "2:cjc105_5240"
    INDEX 01 00:17:21
  TRACK 17 AUDIO
    TITLE "3:cjc105_5241"
    INDEX 01 00:18:54
  TRACK 18 AUDIO
    TITLE "0:"
    INDEX 01 00:20:08
  TRACK 19 AUDIO
    TITLE "2:cjc105_5242"
    INDEX 01 00:20:30
  TRACK 20 AUDIO
    TITLE "3:cjc105_5243"
    INDEX 01 00:21:72
  TRACK 21 AUDIO
    TITLE "0:"
    INDEX 01 00:23:28
  TRACK 22 AUDIO
    TITLE "2:cjc105_5244"
    INDEX 01 00:23:48
  TRACK 23 AUDIO
    TITLE "3:cjc105_5245"
    INDEX 01 00:24:49
  TRACK 24 AUDIO
    TITLE "0:"
    INDEX 01 00:25:68
  TRACK 25 AUDIO
    TITLE "2:cjc105_5246"
    INDEX 01 00:26:11
  TRACK 26 AUDIO
    TITLE "3:cjc105_5247"
    INDEX 01 00:27:55
  TRACK 27 AUDIO
    TITLE "0:"
    INDEX 01 00:29:05
  TRACK 28 AUDIO
    TITLE "2:cjc105_5248"
    INDEX 01 00:29:25
  TRACK 29 AUDIO
    TITLE "3:cjc105_5249"
    INDEX 01 00:30:26
  TRACK 30 AUDIO
    TITLE "0:"
    INDEX 01 00:31:49
  TRACK 31 AUDIO
    TITLE "2:cjc105_5250"
    INDEX 01 00:31:67
  TRACK 32 AUDIO
    TITLE "3:cjc105_5251"
    INDEX 01 00:32:68
  TRACK 33 AUDIO
    TITLE "0:"
    INDEX 01 00:34:02
  TRACK 34 AUDIO
    TITLE "2:cjc105_5252"
    INDEX 01 00:34:24
  TRACK 35 AUDIO
    TITLE "3:cjc105_5253"
    INDEX 01 00:35:64
  TRACK 36 AUDIO
    TITLE "0:"
    INDEX 01 00:37:34
  TRACK 37 AUDIO
    TITLE "2:cjc105_5254"
    INDEX 01 00:37:52
  TRACK 38 AUDIO
    TITLE "3:cjc105_5255"
    INDEX 01 00:39:07
  TRACK 39 AUDIO
    TITLE "0:"
    INDEX 01 00:40:28
  TRACK 40 AUDIO
    TITLE "2:cjc105_5256"
    INDEX 01 00:40:46
  TRACK 41 AUDIO
    TITLE "3:cjc105_5257"
    INDEX 01 00:41:61
  TRACK 42 AUDIO
    TITLE "0:"
    INDEX 01 00:43:21
  TRACK 43 AUDIO
    TITLE "2:cjc105_5258"
    INDEX 01 00:43:39
  TRACK 44 AUDIO
    TITLE "3:cjc105_5259"
    INDEX 01 00:45:06
  TRACK 45 AUDIO
    TITLE "0:"
    INDEX 01 00:46:51
  TRACK 46 AUDIO
    TITLE "2:cjc105_5260"
    INDEX 01 00:46:72
  TRACK 47 AUDIO
    TITLE "3:cjc105_5261"
    INDEX 01 00:48:04
  TRACK 48 AUDIO
    TITLE "0:"
    INDEX 01 00:49:23
  TRACK 49 AUDIO
    TITLE "2:cjc105_5262"
    INDEX 01 00:49:41
  TRACK 50 AUDIO
    TITLE "3:cjc105_5263"
    INDEX 01 00:50:50
  TRACK 51 AUDIO
    TITLE "0:"
    INDEX 01 00:51:71
  TRACK 52 AUDIO
    TITLE "2:cjc105_5264"
    INDEX 01 00:52:18
  TRACK 53 AUDIO
    TITLE "3:cjc105_5265"
    INDEX 01 00:53:51
  TRACK 54 AUDIO
    TITLE "0:"
    INDEX 01 00:54:72
  TRACK 55 AUDIO
    TITLE "2:cjc105_5266"
    INDEX 01 00:55:20
  TRACK 56 AUDIO
    TITLE "3:cjc105_5267"
    INDEX 01 00:56:43
  TRACK 57 AUDIO
    TITLE "0:"
    INDEX 01 00:57:66
  TRACK 58 AUDIO
    TITLE "2:cjc105_5268"
    INDEX 01 00:58:13
  TRACK 59 AUDIO
    TITLE "3:cjc105_5269"
    INDEX 01 00:59:47
  TRACK 60 AUDIO
    TITLE "0:"
    INDEX 01 01:00:59
  TRACK 61 AUDIO
    TITLE "2:cjc105_5270"
    INDEX 01 01:01:05
  TRACK 62 AUDIO
    TITLE "3:cjc105_5271"
    INDEX 01 01:02:46
  TRACK 63 AUDIO
    TITLE "0:"
    INDEX 01 01:04:15
  TRACK 64 AUDIO
    TITLE "2:cjc105_5272"
    INDEX 01 01:04:35
  TRACK 65 AUDIO
    TITLE "3:cjc105_5273"
    INDEX 01 01:05:64
  TRACK 66 AUDIO
    TITLE "0:"
    INDEX 01 01:07:10
  TRACK 67 AUDIO
    TITLE "2:cjc105_5274"
    INDEX 01 01:07:29
  TRACK 68 AUDIO
    TITLE "3:cjc105_5275"
    INDEX 01 01:08:44
  TRACK 69 AUDIO
    TITLE "0:"
    INDEX 01 01:09:63
  TRACK 70 AUDIO
    TITLE "2:cjc105_5276"
    INDEX 01 01:10:10
  TRACK 71 AUDIO
    TITLE "3:cjc105_5277"
    INDEX 01 01:11:47
  TRACK 72 AUDIO
    TITLE "0:"
    INDEX 01 01:13:08
  TRACK 73 AUDIO
    TITLE "2:cjc105_5278"
    INDEX 01 01:13:26
  TRACK 74 AUDIO
    TITLE "3:cjc105_5279"
    INDEX 01 01:14:39
  TRACK 75 AUDIO
    TITLE "0:"
    INDEX 01 01:15:54
  TRACK 76 AUDIO
    TITLE "2:cjc105_5280"
    INDEX 01 01:15:72
  TRACK 77 AUDIO
    TITLE "3:cjc105_5281"
    INDEX 01 01:16:73
  TRACK 78 AUDIO
    TITLE "0:"
    INDEX 01 01:18:06
  TRACK 79 AUDIO
    TITLE "2:cjc105_5282"
    INDEX 01 01:18:25
  TRACK 80 AUDIO
    TITLE "3:cjc105_5283"
    INDEX 01 01:20:51
  TRACK 81 AUDIO
    TITLE "0:"
    INDEX 01 01:22:58
  TRACK 82 AUDIO
    TITLE "2:cjc105_5284"
    INDEX 01 01:23:01
  TRACK 83 AUDIO
    TITLE "3:cjc105_5285"
    INDEX 01 01:24:39
  TRACK 84 AUDIO
    TITLE "0:"
    INDEX 01 01:26:09
  TRACK 85 AUDIO
    TITLE "2:cjc105_5286"
    INDEX 01 01:26:23
  TRACK 86 AUDIO
    TITLE "3:cjc105_5287"
    INDEX 01 01:27:46
  TRACK 87 AUDIO
    TITLE "0:"
    INDEX 01 01:29:11
  TRACK 88 AUDIO
    TITLE "2:cjc105_5288"
    INDEX 01 01:29:29
  TRACK 89 AUDIO
    TITLE "3:cjc105_5289"
    INDEX 01 01:30:50
  TRACK 90 AUDIO
    TITLE "0:"
    INDEX 01 01:32:00
  TRACK 91 AUDIO
    TITLE "2:cjc105_5290"
    INDEX 01 01:32:19
  TRACK 92 AUDIO
    TITLE "3:cjc105_5291"
    INDEX 01 01:33:34
  TRACK 93 AUDIO
    TITLE "0:"
    INDEX 01 01:34:50
  TRACK 94 AUDIO
    TITLE "2:cjc105_5292"
    INDEX 01 01:34:69
  TRACK 95 AUDIO
    TITLE "3:cjc105_5293"
    INDEX 01 01:36:74
  TRACK 96 AUDIO
    TITLE "0:"
    INDEX 01 01:39:04
  TRACK 97 AUDIO
    TITLE "2:cjc105_5294"
    INDEX 01 01:39:25
  TRACK 98 AUDIO
    TITLE "3:cjc105_5295"
    INDEX 01 01:40:44
  TRACK 99 AUDIO
    TITLE "0:"
    INDEX 01 01:41:57
  TRACK 100 AUDIO
    TITLE "2:cjc105_5296"
    INDEX 01 01:42:02
  TRACK 101 AUDIO
    TITLE "3:cjc105_5297"
    INDEX 01 01:43:45
  TRACK 102 AUDIO
    TITLE "0:"
    INDEX 01 01:45:02
  TRACK 103 AUDIO
    TITLE "2:cjc105_5298"
    INDEX 01 01:45:20
  TRACK 104 AUDIO
    TITLE "3:cjc105_5299"
    INDEX 01 01:46:43
  TRACK 105 AUDIO
    TITLE "0:"
    INDEX 01 01:48:01
  TRACK 106 AUDIO
    TITLE "2:cjc105_5300"
    INDEX 01 01:48:22
  TRACK 107 AUDIO
    TITLE "3:cjc105_5301"
    INDEX 01 01:49:30
  TRACK 108 AUDIO
    TITLE "0:"
    INDEX 01 01:50:64
  TRACK 109 AUDIO
    TITLE "2:cjc105_5302"
    INDEX 01 01:51:07
  TRACK 110 AUDIO
    TITLE "3:cjc105_5303"
    INDEX 01 01:52:32
  TRACK 111 AUDIO
    TITLE "0:"
    INDEX 01 01:53:47
  TRACK 112 AUDIO
    TITLE "2:cjc105_5304"
    INDEX 01 01:53:63
  TRACK 113 AUDIO
    TITLE "3:cjc105_5305"
    INDEX 01 01:55:50
  TRACK 114 AUDIO
    TITLE "0:"
    INDEX 01 01:57:25
